<svg xmlns="http://www.w3.org/2000/svg" xml:space="preserve" width="1.70666in" height="1.70666in" version="1.1" style="shape-rendering:geometricPrecision; text-rendering:geometricPrecision; image-rendering:optimizeQuality; fill-rule:evenodd; clip-rule:evenodd" viewBox="0 0 1707 1707" xmlns:xlink="http://www.w3.org/1999/xlink"

>
 <defs>
  <style type="text/css"> 
   
  </style>
 </defs>
 <g id="Layer_x0020_1">
  <metadata id="CorelCorpID_0Corel-Layer"></metadata>
  <g id="_475288960">
   <g>
    <g>
     <g>
      <path class="fil0" fill="#FFD700" d="M773 1300c-1,0 -4,0 -5,0 -39,-9 -78,-25 -115,-45 -213,-124 -286,-398 -163,-610 61,-106 160,-179 278,-210 12,-2 26,5 29,18 3,13 -4,27 -18,30 -105,26 -193,93 -247,186 -110,188 -45,433 146,543 33,19 68,33 102,41 13,3 21,17 18,29 -2,12 -13,18 -25,18z"></path>
     </g>
     <g>
      <path class="fil0" fill="#FFD700"  d="M773 1559l-126 0c-14,0 -25,-11 -25,-25l0 -115c-51,-13 -100,-35 -147,-63l-79 81c-4,4 -11,7 -18,7 0,0 0,0 0,0 -7,0 -13,-3 -18,-7l-167 -171c-10,-10 -10,-25 0,-34l79 -81c-28,-48 -48,-99 -61,-153l-112 0c-14,0 -25,-11 -25,-25l0 -242c0,-14 11,-25 25,-25l112 0c14,-53 33,-104 61,-151l-80 -82c-10,-10 -10,-25 0,-33l168 -173c4,-4 11,-7 18,-7 7,0 12,3 18,7l79 82c47,-29 96,-50 149,-62l0 -115c0,-14 11,-25 25,-25l126 0c14,0 25,11 25,25 0,13 -11,24 -25,24l-103 0 0 109c0,11 -8,21 -19,23 -59,13 -116,38 -168,71 -10,7 -23,6 -31,-3l-76 -77 -134 137 77 78c8,8 10,21 3,29 -34,54 -57,113 -70,172 -3,11 -12,20 -23,20l-109 0 0 194 109 0c11,0 20,8 23,20 14,62 36,119 70,172 5,10 4,22 -3,30l-77 78 134 138 75 -78c8,-9 21,-10 30,-3 53,35 110,58 168,71 11,3 20,12 20,23l0 112 102 0c14,0 25,11 25,25 0,13 -11,22 -25,22z"></path>
     </g>
    </g>
    <g>
     <path class="fil0" fill="#FFD700"  d="M1012 1489l-154 0c-7,0 -14,-2 -18,-8l-85 -101c-8,-10 -7,-25 3,-35 10,-8 25,-7 35,3l78 91 143 0c14,0 25,11 25,25 0,14 -13,25 -27,25z"></path>
    </g>
    <g>
     <path class="fil0" fill="#FFD700"  d="M773 366c-5,0 -11,-1 -15,-6 -10,-8 -11,-23 -3,-34l85 -102c4,-5 11,-8 18,-8l156 0c14,0 25,11 25,24 0,12 -11,25 -25,25l-145 0 -77 91c-5,7 -12,10 -19,10z"></path>
    </g>
    <g>
     <path class="fil0" fill="#FFD700"  d="M1073 327c-47,0 -84,-39 -84,-86 0,-47 39,-85 84,-85 48,0 85,39 85,85 2,47 -37,86 -85,86zm0 -124c-20,0 -36,17 -36,37 0,20 17,37 36,37 21,0 37,-17 37,-37 1,-20 -16,-37 -37,-37z"></path>
    </g>
    <g>
     <path class="fil0" fill="#FFD700"  d="M1085 1562c-53,0 -96,-44 -96,-96 0,-53 43,-96 96,-96 52,0 95,43 95,96 0,52 -43,96 -95,96zm0 -143c-27,0 -48,20 -48,47 0,26 21,47 48,47 26,0 47,-21 47,-47 0,-27 -21,-47 -47,-47z"></path>
    </g>
    <g>
     <path class="fil0" fill="#FFD700"  d="M1003 1707c-141,0 -253,-114 -253,-252l0 -1257c-2,-110 89,-199 198,-199 68,0 132,36 170,92 14,-3 28,-4 42,-4 93,0 173,65 194,153 86,25 146,102 146,193 0,33 -9,66 -25,95 46,48 72,111 72,177 0,29 -6,58 -15,86 62,35 101,101 101,175 0,64 -32,125 -83,161 4,21 7,40 7,60 0,57 -20,112 -53,155 0,7 1,13 1,21 0,110 -90,199 -200,199 -23,0 -47,-5 -70,-13 -38,94 -130,158 -232,158zm-55 -1659c-83,0 -151,68 -151,150l0 1255c0,113 92,204 204,204 90,0 171,-61 196,-147 1,-7 7,-12 14,-15 7,-3 14,-3 21,1 23,13 48,18 73,18 84,0 152,-68 152,-150 0,-8 -2,-16 -2,-25 -1,-7 2,-14 6,-18 30,-36 48,-82 48,-132 0,-20 -2,-41 -9,-63 -3,-12 1,-23 11,-28 46,-27 75,-77 75,-131 0,-62 -38,-116 -95,-140 -5,-3 -11,-7 -13,-14 -3,-7 -3,-12 0,-19 12,-28 19,-57 19,-88 0,-58 -26,-114 -71,-154 -10,-8 -11,-22 -4,-32 18,-26 28,-55 28,-86 0,-72 -52,-135 -124,-149 -10,-1 -18,-9 -19,-20 -11,-74 -75,-128 -149,-128 -15,0 -32,3 -47,7 -11,3 -24,-2 -29,-13 -24,-51 -77,-83 -134,-83z"></path>
    </g>
    <g>
     <path class="fil0" fill="#FFD700"  d="M773 734c-9,0 -19,-6 -22,-15 -4,-13 2,-27 14,-32l233 -88c3,-1 6,-1 9,-1l158 0c14,0 25,11 25,25 0,14 -11,25 -25,25l-154 0 -229 86c-3,-1 -6,0 -9,0z"></path>
    </g>
    <g>
     <path class="fil0" fill="#FFD700"  d="M1235 719c-53,0 -96,-43 -96,-96 0,-53 43,-96 96,-96 52,0 95,43 95,96 2,53 -41,96 -95,96zm0 -143c-27,0 -48,20 -48,47 0,26 21,47 48,47 26,0 47,-21 47,-47 1,-27 -21,-47 -47,-47z"></path>
    </g>
    <g>
     <path class="fil0" fill="#FFD700"  d="M1164 1107l-159 0c-2,0 -5,0 -8,-1l-232 -87c-12,-5 -19,-18 -14,-32 4,-13 18,-20 32,-14l229 86 154 0c14,0 25,11 25,25 0,14 -13,23 -27,23z"></path>
    </g>
    <g>
     <path class="fil0" fill="#FFD700"  d="M1235 1180c-53,0 -95,-43 -95,-98 0,-52 43,-95 96,-95 53,0 96,43 96,95 0,55 -43,98 -97,98zm0 -143c-27,0 -48,20 -48,47 0,26 21,47 48,47 26,0 47,-21 47,-47 1,-27 -21,-47 -47,-47z"></path>
    </g>
    <g>
     <path class="fil0" fill="#FFD700"  d="M1171 488c-9,0 -16,-4 -21,-11 -7,-11 -4,-26 7,-33 1,-2 125,-82 151,-189 3,-13 17,-21 29,-18 13,3 21,16 18,29 -30,126 -166,214 -172,218 -3,3 -8,4 -12,4z"></path>
    </g>
    <g>
     <path class="fil0" fill="#FFD700"  d="M1294 516c-11,0 -21,-7 -23,-18 0,-2 -7,-24 -25,-118 -3,-13 5,-27 19,-29 13,-3 26,5 29,19 18,92 25,114 25,114 4,12 -4,26 -16,29 -3,2 -6,3 -9,3z"></path>
    </g>
    <g>
     <path class="fil0" fill="#FFD700"  d="M1210 1392c-10,0 -19,-5 -23,-14 -5,-12 0,-26 13,-32 7,-2 154,-68 276,-25 13,4 20,18 15,31 -4,12 -18,19 -30,15 -104,-36 -240,22 -242,24 -3,1 -5,1 -9,1z"></path>
    </g>
    <g>
     <path class="fil0" fill="#FFD700"  d="M1337 1359c-7,0 -12,-3 -16,-7 -67,-68 -99,-102 -99,-102 -10,-9 -10,-25 0,-34 10,-10 25,-10 35,0 0,0 32,33 98,101 10,10 10,25 0,35 -5,4 -11,7 -18,7z"></path>
    </g>
   </g>
  </g>
 </g>
</svg>